<svg width="239" height="121" viewBox="0 0 239 121" fill="none" xmlns="http://www.w3.org/2000/svg">
<g filter="url(#filter0_d_5778_1732)">
<rect x="30" y="20" width="179" height="61" rx="30.5" fill="white"/>
<path d="M70.3383 49.8778H75.7231V56.9151C75.0113 57.1503 74.2717 57.3391 73.5042 57.4814C72.7367 57.6176 71.8671 57.6857 70.8954 57.6857C69.5461 57.6857 68.4011 57.4195 67.4603 56.8873C66.5195 56.355 65.8046 55.5689 65.3157 54.5291C64.8267 53.4893 64.5822 52.2112 64.5822 50.6948C64.5822 49.2712 64.8546 48.0396 65.3992 46.9997C65.9501 45.9599 66.7516 45.1553 67.8038 44.5859C68.8622 44.0165 70.1527 43.7318 71.6752 43.7318C72.3932 43.7318 73.1019 43.8091 73.8013 43.9639C74.5007 44.1186 75.1351 44.3198 75.7045 44.5673L74.7483 46.8698C74.3336 46.6593 73.8601 46.4829 73.3278 46.3406C72.7955 46.1982 72.2385 46.127 71.6567 46.127C70.8211 46.127 70.0939 46.3189 69.4749 46.7027C68.8622 47.0864 68.3856 47.6249 68.0452 48.3181C67.711 49.0051 67.5438 49.8159 67.5438 50.7505C67.5438 51.6356 67.6645 52.4216 67.9059 53.1086C68.1473 53.7895 68.528 54.3249 69.0479 54.7148C69.5678 55.0985 70.2455 55.2904 71.0811 55.2904C71.4896 55.2904 71.8331 55.2718 72.1116 55.2347C72.3963 55.1914 72.6624 55.148 72.91 55.1047V52.2731H70.3383V49.8778ZM82.6401 46.9255C83.5994 46.9255 84.4257 47.1112 85.1189 47.4825C85.8121 47.8477 86.3475 48.38 86.725 49.0794C87.1026 49.7788 87.2914 50.6329 87.2914 51.6418V53.0158H80.5976C80.6285 53.8142 80.8668 54.4425 81.3124 54.9005C81.7643 55.3523 82.3894 55.5782 83.1878 55.5782C83.8501 55.5782 84.4566 55.5101 85.0075 55.374C85.5584 55.2378 86.1247 55.0335 86.7065 54.7612V56.9522C86.1928 57.206 85.6543 57.3917 85.0911 57.5093C84.534 57.6269 83.8563 57.6857 83.0578 57.6857C82.018 57.6857 81.0958 57.4938 80.2912 57.1101C79.4928 56.7263 78.8646 56.1414 78.4065 55.3554C77.9547 54.5693 77.7288 53.579 77.7288 52.3845C77.7288 51.1714 77.9331 50.1625 78.3416 49.3579C78.7562 48.5471 79.3319 47.9405 80.0684 47.5382C80.8049 47.1297 81.6621 46.9255 82.6401 46.9255ZM82.6586 48.9401C82.1078 48.9401 81.6498 49.1165 81.2846 49.4693C80.9256 49.8221 80.7183 50.376 80.6626 51.1311H84.6361C84.6299 50.7103 84.5526 50.3358 84.404 50.0078C84.2617 49.6797 84.0451 49.4198 83.7542 49.2279C83.4694 49.036 83.1043 48.9401 82.6586 48.9401ZM93.5863 55.4297C93.8958 55.4297 94.196 55.3987 94.4869 55.3368C94.784 55.2749 95.078 55.1976 95.3689 55.1047V57.2122C95.0656 57.3484 94.688 57.4598 94.2362 57.5464C93.7906 57.6393 93.3016 57.6857 92.7693 57.6857C92.1504 57.6857 91.5934 57.5867 91.0982 57.3886C90.6092 57.1843 90.2224 56.8346 89.9377 56.3395C89.6592 55.8382 89.5199 55.1419 89.5199 54.2506V49.2465H88.1644V48.0488L89.7242 47.1019L90.5412 44.9108H92.3515V47.1204H95.2575V49.2465H92.3515V54.2506C92.3515 54.6467 92.463 54.9438 92.6858 55.1419C92.9148 55.3337 93.215 55.4297 93.5863 55.4297ZM109.89 53.7307C109.89 54.5353 109.695 55.2347 109.305 55.8289C108.915 56.4231 108.346 56.8811 107.597 57.2029C106.854 57.5248 105.95 57.6857 104.886 57.6857C104.415 57.6857 103.954 57.6547 103.502 57.5928C103.057 57.5309 102.627 57.4412 102.212 57.3236C101.803 57.1998 101.414 57.0482 101.042 56.8687V54.1949C101.686 54.4796 102.354 54.7364 103.048 54.9655C103.741 55.1945 104.428 55.309 105.109 55.309C105.579 55.309 105.957 55.2471 106.241 55.1233C106.532 54.9995 106.743 54.8293 106.873 54.6127C107.003 54.396 107.068 54.1485 107.068 53.8699C107.068 53.5295 106.953 53.2386 106.724 52.9972C106.495 52.7559 106.179 52.5299 105.777 52.3195C105.381 52.1091 104.932 51.8832 104.431 51.6418C104.115 51.4932 103.772 51.3137 103.4 51.1033C103.029 50.8867 102.676 50.6236 102.342 50.3142C102.008 50.0047 101.732 49.6302 101.516 49.1908C101.305 48.7451 101.2 48.2129 101.2 47.5939C101.2 46.7831 101.386 46.0899 101.757 45.5143C102.128 44.9387 102.658 44.4992 103.345 44.196C104.038 43.8865 104.855 43.7318 105.796 43.7318C106.501 43.7318 107.173 43.8153 107.81 43.9824C108.454 44.1434 109.125 44.3786 109.825 44.688L108.896 46.9255C108.271 46.6717 107.711 46.4767 107.216 46.3406C106.721 46.1982 106.216 46.127 105.703 46.127C105.344 46.127 105.037 46.1858 104.784 46.3034C104.53 46.4149 104.338 46.5758 104.208 46.7862C104.078 46.9905 104.013 47.2288 104.013 47.5011C104.013 47.8229 104.106 48.0953 104.292 48.3181C104.483 48.5347 104.768 48.7451 105.146 48.9494C105.529 49.1536 106.006 49.3919 106.575 49.6643C107.269 49.9923 107.86 50.3358 108.349 50.6948C108.844 51.0476 109.224 51.4654 109.491 51.9481C109.757 52.4247 109.89 53.0189 109.89 53.7307ZM116.12 55.4297C116.429 55.4297 116.729 55.3987 117.02 55.3368C117.317 55.2749 117.611 55.1976 117.902 55.1047V57.2122C117.599 57.3484 117.222 57.4598 116.77 57.5464C116.324 57.6393 115.835 57.6857 115.303 57.6857C114.684 57.6857 114.127 57.5867 113.632 57.3886C113.143 57.1843 112.756 56.8346 112.471 56.3395C112.193 55.8382 112.053 55.1419 112.053 54.2506V49.2465H110.698V48.0488L112.258 47.1019L113.075 44.9108H114.885V47.1204H117.791V49.2465H114.885V54.2506C114.885 54.6467 114.996 54.9438 115.219 55.1419C115.448 55.3337 115.748 55.4297 116.12 55.4297ZM123.882 46.9069C125.274 46.9069 126.342 47.2102 127.085 47.8167C127.827 48.4233 128.199 49.3455 128.199 50.5834V57.5H126.221L125.673 56.0888H125.599C125.302 56.4602 124.999 56.7635 124.689 56.9987C124.38 57.2339 124.024 57.4072 123.622 57.5186C123.219 57.63 122.73 57.6857 122.155 57.6857C121.542 57.6857 120.991 57.5681 120.502 57.3329C120.019 57.0977 119.639 56.7387 119.36 56.2559C119.082 55.767 118.943 55.148 118.943 54.3991C118.943 53.2974 119.329 52.4866 120.103 51.9667C120.877 51.4406 122.037 51.1497 123.585 51.094L125.386 51.0383V50.5834C125.386 50.0387 125.243 49.6395 124.959 49.3857C124.674 49.132 124.278 49.0051 123.77 49.0051C123.269 49.0051 122.777 49.0763 122.294 49.2186C121.811 49.361 121.329 49.5405 120.846 49.7571L119.908 47.8446C120.459 47.5537 121.075 47.3247 121.756 47.1576C122.443 46.9905 123.151 46.9069 123.882 46.9069ZM125.386 52.6909L124.29 52.728C123.374 52.7528 122.737 52.9168 122.378 53.2201C122.025 53.5233 121.848 53.9225 121.848 54.4177C121.848 54.851 121.975 55.1604 122.229 55.3461C122.483 55.5256 122.814 55.6153 123.222 55.6153C123.829 55.6153 124.34 55.4358 124.754 55.0769C125.175 54.7179 125.386 54.2073 125.386 53.545V52.6909ZM136.536 46.9255C136.679 46.9255 136.843 46.9348 137.028 46.9533C137.22 46.9657 137.375 46.9843 137.492 47.009L137.279 49.6643C137.186 49.6333 137.053 49.6117 136.88 49.5993C136.713 49.5807 136.567 49.5714 136.443 49.5714C136.078 49.5714 135.722 49.6178 135.376 49.7107C135.035 49.8035 134.729 49.9552 134.457 50.1656C134.184 50.3699 133.968 50.6422 133.807 50.9826C133.652 51.3168 133.575 51.7284 133.575 52.2174V57.5H130.743V47.1204H132.888L133.305 48.8658H133.445C133.649 48.513 133.903 48.1912 134.206 47.9003C134.515 47.6032 134.865 47.368 135.255 47.1947C135.651 47.0152 136.078 46.9255 136.536 46.9255ZM143.37 55.4297C143.679 55.4297 143.979 55.3987 144.27 55.3368C144.567 55.2749 144.861 55.1976 145.152 55.1047V57.2122C144.849 57.3484 144.471 57.4598 144.019 57.5464C143.574 57.6393 143.085 57.6857 142.553 57.6857C141.934 57.6857 141.377 57.5867 140.881 57.3886C140.393 57.1843 140.006 56.8346 139.721 56.3395C139.442 55.8382 139.303 55.1419 139.303 54.2506V49.2465H137.948V48.0488L139.507 47.1019L140.324 44.9108H142.135V47.1204H145.041V49.2465H142.135V54.2506C142.135 54.6467 142.246 54.9438 142.469 55.1419C142.698 55.3337 142.998 55.4297 143.37 55.4297ZM151.159 46.9255C152.119 46.9255 152.945 47.1112 153.638 47.4825C154.331 47.8477 154.867 48.38 155.244 49.0794C155.622 49.7788 155.811 50.6329 155.811 51.6418V53.0158H149.117C149.148 53.8142 149.386 54.4425 149.832 54.9005C150.283 55.3523 150.909 55.5782 151.707 55.5782C152.369 55.5782 152.976 55.5101 153.527 55.374C154.078 55.2378 154.644 55.0335 155.226 54.7612V56.9522C154.712 57.206 154.173 57.3917 153.61 57.5093C153.053 57.6269 152.375 57.6857 151.577 57.6857C150.537 57.6857 149.615 57.4938 148.81 57.1101C148.012 56.7263 147.384 56.1414 146.926 55.3554C146.474 54.5693 146.248 53.579 146.248 52.3845C146.248 51.1714 146.452 50.1625 146.861 49.3579C147.275 48.5471 147.851 47.9405 148.588 47.5382C149.324 47.1297 150.181 46.9255 151.159 46.9255ZM151.178 48.9401C150.627 48.9401 150.169 49.1165 149.804 49.4693C149.445 49.8221 149.237 50.376 149.182 51.1311H153.155C153.149 50.7103 153.072 50.3358 152.923 50.0078C152.781 49.6797 152.564 49.4198 152.273 49.2279C151.989 49.036 151.623 48.9401 151.178 48.9401ZM161.019 57.6857C159.862 57.6857 158.918 57.2339 158.188 56.3302C157.464 55.4204 157.101 54.0866 157.101 52.3288C157.101 50.5524 157.47 49.2093 158.206 48.2995C158.943 47.3835 159.905 46.9255 161.094 46.9255C161.589 46.9255 162.025 46.9936 162.403 47.1297C162.78 47.2659 163.105 47.4485 163.377 47.6775C163.656 47.9065 163.891 48.1633 164.083 48.4481H164.176C164.139 48.25 164.092 47.9591 164.037 47.5754C163.987 47.1854 163.962 46.7862 163.962 46.3777V43.054H166.803V57.5H164.631L164.083 56.1538H163.962C163.783 56.4385 163.557 56.6985 163.285 56.9337C163.018 57.1627 162.7 57.3453 162.328 57.4814C161.957 57.6176 161.521 57.6857 161.019 57.6857ZM162.013 55.4297C162.786 55.4297 163.331 55.2007 163.647 54.7426C163.969 54.2784 164.139 53.5821 164.157 52.6537V52.3474C164.157 51.3385 164.003 50.5679 163.693 50.0356C163.384 49.4972 162.808 49.2279 161.966 49.2279C161.341 49.2279 160.852 49.4972 160.499 50.0356C160.147 50.5741 159.97 51.3509 159.97 52.3659C159.97 53.381 160.147 54.1454 160.499 54.6591C160.858 55.1728 161.363 55.4297 162.013 55.4297Z" fill="url(#paint0_radial_5778_1732)"/>
</g>
<defs>
<filter id="filter0_d_5778_1732" x="0.200001" y="0.200001" width="238.6" height="120.6" filterUnits="userSpaceOnUse" color-interpolation-filters="sRGB">
<feFlood flood-opacity="0" result="BackgroundImageFix"/>
<feColorMatrix in="SourceAlpha" type="matrix" values="0 0 0 0 0 0 0 0 0 0 0 0 0 0 0 0 0 0 127 0" result="hardAlpha"/>
<feOffset dy="10"/>
<feGaussianBlur stdDeviation="14.9"/>
<feComposite in2="hardAlpha" operator="out"/>
<feColorMatrix type="matrix" values="0 0 0 0 0.884615 0 0 0 0 0.884615 0 0 0 0 0.884615 0 0 0 0.25 0"/>
<feBlend mode="normal" in2="BackgroundImageFix" result="effect1_dropShadow_5778_1732"/>
<feBlend mode="normal" in="SourceGraphic" in2="effect1_dropShadow_5778_1732" result="shape"/>
</filter>
<radialGradient id="paint0_radial_5778_1732" cx="0" cy="0" r="1" gradientUnits="userSpaceOnUse" gradientTransform="translate(63.7429 63.5) rotate(-7.31287) scale(112.696 126.475)">
<stop offset="0.0001" stop-color="#3975C7"/>
<stop offset="0.447115" stop-color="#7EB1F6"/>
<stop offset="0.575" stop-color="#77B0FF"/>
<stop offset="1" stop-color="#3975C7"/>
</radialGradient>
</defs>
</svg>
